<?xml version="1.0" encoding="utf-8"?>
<svg xmlns="http://www.w3.org/2000/svg" viewBox="0 0 50 50"><defs><style>.ab23ff16-1551-45f9-865e-af6e8112a18a{fill:#00a478;}.e150fc12-72db-4173-81ed-4e0f1654eda2{fill:#fff;}</style></defs><title>tether</title><g id="f42208de-d631-4f16-90b3-590e90964046" data-name="Calque 2"><g id="adb1ab75-5bf6-490c-aee9-1545475f6f4a" data-name="Back"><g id="ad7ae317-8b14-421d-bfd9-2cd5747c3dfc" data-name="tether"><rect id="b73d60f4-0015-4c42-82bf-8e137fa53507" data-name="Your color" class="ab23ff16-1551-45f9-865e-af6e8112a18a" width="50" height="50" rx="19.67"/><path class="e150fc12-72db-4173-81ed-4e0f1654eda2" d="M27.68,19.49V16h9.24V10.61H13.08V16h9.24v3.52C15.34,19.75,9,21,9,23.27s6.34,3.52,13.32,3.78V39.39h5.36V27.05c7-.26,13.32-1.55,13.32-3.78S34.66,19.75,27.68,19.49Zm.65,6.71H28l-.35,0h0c-.89,0-1.78.06-2.68.06s-1.79,0-2.68-.06h0l-1.47-.08h-.37c-6.69-.45-10.67-1.83-10.67-2.87s4.7-2.67,12.51-3v4.12c.86,0,1.74.06,2.68.06s1.82,0,2.68-.06V20.3c7.81.3,12.51,1.83,12.51,3S35.74,25.85,28.33,26.2Z"/></g></g></g></svg>