<?xml version="1.0" encoding="utf-8"?>
<!-- Generator: Adobe Illustrator 24.0.2, SVG Export Plug-In . SVG Version: 6.00 Build 0)  -->
<svg version="1.1" id="圖層_1" xmlns="http://www.w3.org/2000/svg" xmlns:xlink="http://www.w3.org/1999/xlink" x="0px" y="0px"
	 viewBox="0 0 50 50" style="enable-background:new 0 0 50 50;" xml:space="preserve">
<style type="text/css">
	.st0{fill:#0EBDCD;}
	.st1{fill:#FFFFFF;}
</style>
<title>tether</title>
<g id="adb1ab75-5bf6-490c-aee9-1545475f6f4a">
	<g id="ad7ae317-8b14-421d-bfd9-2cd5747c3dfc">
		<path id="b73d60f4-0015-4c42-82bf-8e137fa53507" class="st0" d="M19.7,0h10.7C41.2,0,50,8.8,50,19.7v10.7C50,41.2,41.2,50,30.3,50
			H19.7C8.8,50,0,41.2,0,30.3V19.7C0,8.8,8.8,0,19.7,0z"/>
	</g>
</g>
<path class="st1" d="M25,10.9l-9.1,14L25,39.1L34.1,25L25,10.9z M31.2,24.4L25,26.3l-6.2-1.9l6.2-9.6L31.2,24.4z M19.6,26.8l5.4,1.7
	l5.4-1.7L25,35.2L19.6,26.8z"/>
</svg>
