<?xml version="1.0" encoding="utf-8"?>
<!-- Generator: Adobe Illustrator 23.1.0, SVG Export Plug-In . SVG Version: 6.00 Build 0)  -->
<svg version="1.1" id="圖層_1" xmlns="http://www.w3.org/2000/svg" xmlns:xlink="http://www.w3.org/1999/xlink" x="0px" y="0px"
	 viewBox="0 0 428 428" style="enable-background:new 0 0 428 428;" xml:space="preserve">
<style type="text/css">
	.st0{fill-rule:evenodd;clip-rule:evenodd;fill:#0799FF;}
	.st1{fill:#FFFFFF;}
</style>
<g id="Page-1">
	<g id="scatter_simple_start" transform="translate(-31.000000, -30.000000)">
		<path id="Combined-Shape" class="st0" d="M244.6,30.8c118,0,213.6,95.6,213.6,213.6S362.6,458,244.6,458S31,362.4,31,244.4
			S126.6,30.8,244.6,30.8z M267.4,118.1c-8.2,0-16.3,1.2-24.4,3.7c-8.1,2.5-15.9,5.9-23.4,10.3c-7.5,4.4-14.4,9.5-20.8,15.4
			c-6.4,5.9-12,12.2-16.7,19c-4.7,6.8-8.4,13.9-11.1,21.4c-2.7,7.5-4,14.9-4,22.3c0,8.6,1.3,16.2,3.8,22.9c2.5,6.7,5.8,12.7,9.9,18
			c4.1,5.3,8.8,10,14,14.1c5.3,4.1,10.6,7.9,16.1,11.4c5.5,3.5,10.9,6.9,16.1,10.2c5.3,3.3,9.9,6.6,14,10c4.1,3.4,7.4,7.1,9.9,11.1
			c2.5,4,3.8,8.5,3.8,13.6c0,7.3-2.3,13-7,17.3c-4.7,4.2-10.7,6.4-18,6.4c-3.4,0-6.3-0.4-8.8-1.2c-2.5-0.8-4.6-1.6-6.3-2.6
			c-1.7-0.9-3-1.8-3.9-2.7l0,0l-1.8-1.7c-1.1-2-2.4-3-4-3c-1.3,0-2.7,0.7-4.4,2c-1.6,1.3-3.2,3-4.6,4.9c-1.4,1.9-2.6,4-3.5,6.3
			c-0.9,2.3-1.4,4.4-1.4,6.4c0,0.6,0.6,1.7,1.8,3.6c1.2,1.8,3.2,3.7,6.1,5.7c2.9,2,6.9,3.8,11.9,5.4c5,1.6,11.3,2.4,18.9,2.4
			c7.5,0,14.5-1.3,21-4c6.5-2.6,12.2-6.2,17-10.8c4.8-4.5,8.5-9.8,11.3-16c2.7-6.1,4.1-12.6,4.1-19.4c0-7.1-1.3-13.3-3.8-18.8
			c-2.5-5.5-5.8-10.4-10-14.9c-4.1-4.5-8.8-8.5-14.1-12.2c-5.3-3.7-10.6-7.3-16.1-10.8c-5.5-3.5-10.9-7-16.1-10.5
			c-5.3-3.5-9.9-7.4-14.1-11.6c-4.1-4.2-7.5-8.9-10-14c-2.5-5.1-3.8-10.9-3.8-17.5c0-6.2,1.1-12.1,3.4-17.8c2.3-5.7,5.3-11,9-15.9
			c3.7-4.9,8.1-9.4,13-13.5c4.9-4.1,10-7.6,15.2-10.4c5.3-2.9,10.5-5.1,15.7-6.7c5.2-1.6,10-2.4,14.4-2.4c7.1,0,12.2,1.7,15.1,5
			c3,3.3,4.5,7.8,4.5,13.6c0,5.6-1.8,11.4-5.3,17.4c-3.6,6-8,11.4-13.2,16.4c-5.3,5-10.9,9-16.8,12.2s-11.4,4.8-16.3,4.8
			c-1.5,0-2.9-0.1-4-0.4c-1.2-0.3-2.1-0.4-2.9-0.5c-0.8-0.1-1.3,0.1-1.8,0.6s-0.6,1.4-0.6,2.8c0,1.8,0.5,3.8,1.4,6
			c0.9,2.3,2.2,4.4,3.9,6.5c1.7,2,3.8,3.8,6.3,5.1c2.5,1.4,5.3,2.1,8.5,2.1c3.6,0,7.8-0.9,12.6-2.8c4.8-1.9,9.7-4.5,14.8-7.9
			c5.1-3.4,10-7.3,14.9-11.9c4.8-4.6,9.2-9.6,13-15c3.9-5.4,6.9-11.1,9.3-17.2c2.3-6.1,3.5-12.2,3.5-18.5c0-6.6-1.1-12.6-3.2-18
			c-2.1-5.3-5.1-9.9-8.9-13.7c-3.9-3.8-8.6-6.8-14.2-8.9C280.7,119.2,274.4,118.1,267.4,118.1z"/>
	</g>
</g>
<path class="st1" d="M269.5,100.1c-3.9-3.8-8.6-6.8-14.2-8.9c-5.6-2.1-11.9-3.1-18.9-3.1c-8.2,0-16.3,1.2-24.4,3.7
	c-8.1,2.5-15.9,5.9-23.4,10.3c-7.5,4.4-14.4,9.5-20.8,15.4c-6.4,5.9-12,12.2-16.7,19c-4.7,6.8-8.4,13.9-11.1,21.4
	c-2.7,7.5-4,14.9-4,22.3c0,8.6,1.3,16.2,3.8,22.9c2.5,6.7,5.8,12.7,9.9,18c4.1,5.3,8.8,10,14,14.1c5.3,4.1,10.6,7.9,16.1,11.4
	c5.5,3.5,10.9,6.9,16.1,10.2c5.3,3.3,9.9,6.6,14,10c4.1,3.4,7.4,7.1,9.9,11.1c2.5,4,3.8,8.5,3.8,13.6c0,7.3-2.3,13-7,17.3
	c-4.7,4.2-10.7,6.4-18,6.4c-3.4,0-6.3-0.4-8.8-1.2c-2.5-0.8-4.6-1.6-6.3-2.6c-1.7-0.9-3-1.8-3.9-2.7l-1.8-1.7c-1.1-2-2.4-3-4-3
	c-1.3,0-2.7,0.7-4.4,2c-1.6,1.3-3.2,3-4.6,4.9s-2.6,4-3.5,6.3c-0.9,2.3-1.4,4.4-1.4,6.4c0,0.6,0.6,1.7,1.8,3.6
	c1.2,1.8,3.2,3.7,6.1,5.7c2.9,2,6.9,3.8,11.9,5.4c5,1.6,11.3,2.4,18.9,2.4c7.5,0,14.5-1.3,21-4c6.5-2.6,12.2-6.2,17-10.8
	c4.8-4.5,8.5-9.8,11.3-16c2.7-6.1,4.1-12.6,4.1-19.4c0-7.1-1.3-13.3-3.8-18.8c-2.5-5.5-5.8-10.4-10-14.9c-4.1-4.5-8.8-8.5-14.1-12.2
	c-5.3-3.7-10.6-7.3-16.1-10.8c-5.5-3.5-10.9-7-16.1-10.5c-5.3-3.5-9.9-7.4-14.1-11.6c-4.1-4.2-7.5-8.9-10-14
	c-2.5-5.1-3.8-10.9-3.8-17.5c0-6.2,1.1-12.1,3.4-17.8c2.3-5.7,5.3-11,9-15.9c3.7-4.9,8.1-9.4,13-13.5c4.9-4.1,10-7.6,15.2-10.4
	c5.3-2.9,10.5-5.1,15.7-6.7c5.2-1.6,10-2.4,14.4-2.4c7.1,0,12.2,1.7,15.1,5c3,3.3,4.5,7.8,4.5,13.6c0,5.6-1.8,11.4-5.3,17.4
	c-3.6,6-8,11.4-13.2,16.4c-5.3,5-10.9,9-16.8,12.2c-6,3.2-11.4,4.8-16.3,4.8c-1.5,0-2.9-0.1-4-0.4c-1.2-0.3-2.1-0.4-2.9-0.5
	c-0.8-0.1-1.3,0.1-1.8,0.6c-0.4,0.4-0.6,1.4-0.6,2.8c0,1.8,0.5,3.8,1.4,6c0.9,2.3,2.2,4.4,3.9,6.5c1.7,2,3.8,3.8,6.3,5.1
	c2.5,1.4,5.3,2.1,8.5,2.1c3.6,0,7.8-0.9,12.6-2.8c4.8-1.9,9.7-4.5,14.8-7.9c5.1-3.4,10-7.3,14.9-11.9s9.2-9.6,13-15
	c3.9-5.4,6.9-11.1,9.3-17.2c2.3-6.1,3.5-12.2,3.5-18.5c0-6.6-1.1-12.6-3.2-18C276.3,108.5,273.4,103.9,269.5,100.1z"/>
</svg>
