<?xml version="1.0" encoding="utf-8"?>
<!-- Generator: Adobe Illustrator 24.0.2, SVG Export Plug-In . SVG Version: 6.00 Build 0)  -->
<svg version="1.1" id="圖層_1" xmlns="http://www.w3.org/2000/svg" xmlns:xlink="http://www.w3.org/1999/xlink" x="0px" y="0px"
	 viewBox="0 0 560 560" style="enable-background:new 0 0 560 560;" xml:space="preserve">
<path d="M-1063.9,796.9L-1063.9,796.9c-0.2,0-0.2,0-0.2,0H-1063.9z"/>
<path d="M-1063.9,763.5C-1063.9,763.5-1064,763.5-1063.9,763.5c-0.1,0-0.2,0-0.2,0H-1063.9z"/>
<g>
	<g>
		<path d="M370.2,279.2L348,303.8c-17.3-14.4-34.2-23.5-50.7-27.3v50.9c17.2,5.2,31,11.6,41.6,19.2c15.3,11.1,23.1,24.7,23.1,40.7
			c0,16.6-7,30.8-21,42.6c-12.4,10.8-26.9,17.3-43.7,19.8v18.5h-26.1v-18.9c-28.8-4.6-56-21.9-81.6-51.9l24.8-22.7
			c17.6,22.4,36.4,35.8,56.6,40.2v-58.5c-24.7-8.2-40-14.1-45.6-17.7c-15.6-9.6-23.4-23.2-23.4-40.7c0-17.2,7.5-31,22.5-41.6
			c12.8-9.2,28.3-14.5,46.5-15.9v-12h26.1v12.9C321,244.8,345.2,257.4,370.2,279.2z M271.3,320v-45.6c-23.2,2-34.8,9.8-34.8,23.4
			c0,7.6,5.2,12.9,15.6,15.9C252.5,313.9,258.9,316,271.3,320z M328.9,389.5c0-9.2-7.4-16.3-22.2-21.3c-4-1.5-7.1-2.6-9.3-3.3v50
			c7.6-1.5,14.5-4.5,20.6-8.7C325.3,401.1,328.9,395.5,328.9,389.5z"/>
	</g>
	<path d="M323.2,150.5v-48.8l49.5,0.1L279.8,9l-92.4,92.4l49.5,0.1v49c-91.1,19.9-159.4,101-159.4,197.9
		C77.4,460.2,168.3,551,280,551s202.6-90.8,202.6-202.6C482.6,251.5,414.1,170.4,323.2,150.5z M280,520.1
		c-94.6,0-171.7-77.1-171.7-171.7S185.4,176.8,280,176.8s171.7,77.1,171.7,171.7S374.6,520.1,280,520.1z"/>
</g>
</svg>
