<?xml version="1.0" encoding="utf-8"?>
<!-- Generator: Adobe Illustrator 24.0.2, SVG Export Plug-In . SVG Version: 6.00 Build 0)  -->
<svg version="1.1" id="圖層_1" xmlns="http://www.w3.org/2000/svg" xmlns:xlink="http://www.w3.org/1999/xlink" x="0px" y="0px"
	 viewBox="0 0 560 560" style="enable-background:new 0 0 560 560;" xml:space="preserve">
<path d="M-1063.9,796.9L-1063.9,796.9c-0.2,0-0.2,0-0.2,0H-1063.9z"/>
<path d="M-1063.9,763.5C-1063.9,763.5-1064,763.5-1063.9,763.5c-0.1,0-0.2,0-0.2,0H-1063.9z"/>
<g>
	<path d="M160.6,221.7l31.5,35.9l39.2-44.9l-26.2-30c-28.2-32-68.7-50.4-111.2-50.4H58v59.1h35.9
		C119.5,191.4,143.8,202.4,160.6,221.7z"/>
	<path d="M502,398.2l-88.6-88.6v59.1h-5.4c-25.6,0-49.8-11-66.7-30.3l-51-58.3l51-58.3c16.8-19.2,41.2-30.3,66.7-30.3h5.4v59.1
		l88.6-88.6l-88.6-88.6v59.1h-5.4c-42.6,0-83.1,18.4-111.1,50.5L160.6,338.3c-16.8,19.2-41.2,30.3-66.7,30.3H58v59.1h35.9
		c42.6,0,83.1-18.4,111.1-50.5l45.9-52.4l45.9,52.4c28.1,32.1,68.6,50.5,111.1,50.5h5.4v59.1L502,398.2z"/>
</g>
</svg>
