<?xml version="1.0" encoding="utf-8"?>
<!-- Generator: Adobe Illustrator 24.0.2, SVG Export Plug-In . SVG Version: 6.00 Build 0)  -->
<svg version="1.1" xmlns="http://www.w3.org/2000/svg" xmlns:xlink="http://www.w3.org/1999/xlink" x="0px" y="0px"
	 viewBox="0 0 560 560" style="enable-background:new 0 0 560 560;" xml:space="preserve">
<path d="M-1063.9,796.9L-1063.9,796.9c-0.2,0-0.2,0-0.2,0H-1063.9z"/>
<path d="M-1063.9,763.5C-1063.9,763.5-1064,763.5-1063.9,763.5c-0.1,0-0.2,0-0.2,0H-1063.9z"/>
<path d="M340,280l153.6-153.7c16.5-16.5,16.5-43.4,0-59.9c-16.7-16.5-43.6-16.5-60.1,0L280,220L126.3,66.4
	c-16.5-16.5-43.4-16.5-59.9,0c-16.5,16.7-16.5,43.6,0,60.1L219.9,280L66.4,433.5c-8.3,8.3-12.4,19.2-12.4,30
	c0,10.9,4.1,21.7,12.4,30c16.7,16.5,43.4,16.5,60.1,0L280,340l153.5,153.5c8.3,8.3,19.2,12.4,30,12.4c10.9,0,21.7-4.1,30-12.4
	c16.5-16.7,16.5-43.4,0-60.1L340,280z"/>
</svg>
