<?xml version="1.0" encoding="utf-8"?>
<!-- Generator: Adobe Illustrator 24.0.2, SVG Export Plug-In . SVG Version: 6.00 Build 0)  -->
<svg version="1.1" id="圖層_1" xmlns="http://www.w3.org/2000/svg" xmlns:xlink="http://www.w3.org/1999/xlink" x="0px" y="0px"
	 viewBox="0 0 560 560" style="enable-background:new 0 0 560 560;" xml:space="preserve">
<path d="M-1063.9,796.9L-1063.9,796.9c-0.2,0-0.2,0-0.2,0H-1063.9z"/>
<path d="M-1063.9,763.5C-1063.9,763.5-1064,763.5-1063.9,763.5c-0.1,0-0.2,0-0.2,0H-1063.9z"/>
<g>
	<path d="M410.3,151.3c-8.9,0-16.2-7.2-16.2-16.2s7.2-16.2,16.2-16.2c6.5,0,12.4,3.9,14.9,9.9l29.7-12.6
		c-7.6-18-25.1-29.6-44.7-29.6c-26.7,0-48.5,21.8-48.5,48.5s21.8,48.5,48.5,48.5c8.9,0,16.2,7.2,16.2,16.2s-7.2,16.2-16.2,16.2
		c-6.5,0-12.4-3.9-14.9-9.9l-29.7,12.6c7.6,18,25.1,29.6,44.7,29.6c26.7,0,48.5-21.8,48.5-48.5S437,151.3,410.3,151.3z"/>
	<path d="M555.7,167.4C555.7,87.3,490.5,22,410.3,22S264.9,87.3,264.9,167.4c0,5.5,0.3,10.9,0.9,16.2h-66.6
		c-22.7,0-44.5,4.6-64.9,13.7c-16.6-8.9-34.9-13.7-53.4-13.7H31.4l27.7,83c-2.8,4.8-5.2,9.4-7.2,13.9H4.3v129.3h47.5
		c12.6,28.7,33.6,53.4,60,70.5c14.3,9.3,22.8,25,22.8,42V539h96.9v-32.3h96.9V539h96.9v-16.2c0-27,9.6-53.3,26.9-74.1
		c37.8-45.1,46.4-104.9,29.3-154.7C525.8,269.1,555.7,221.7,555.7,167.4L555.7,167.4z M427.6,428.1c-18.7,22.4-30.4,49.9-33.6,78.6
		h-33.2v-35.9c-0.1,0-31.2,3.6-32.3,3.6H199.2v32.3h-33.8c-4.2-21.9-17-41.1-36.2-53.5c-44.2-28.7-52.7-71-55.1-75.7H36.6v-64.6
		h37.6l3.8-10.8c5.3-15,13.8-26.8,16.5-31.5l-18.2-54.7h4.6c29.3,0,47.4,16.2,51.7,18.3c5.3-2,28.5-18.3,66.7-18.3h74
		c20,56.4,73.9,96.9,137.1,96.9c14.4,0,28.3-2.2,41.5-6C464.6,346.3,457,392.9,427.6,428.1z M410.3,280.5
		c-62.4,0-113.1-50.7-113.1-113.1S348,54.3,410.3,54.3S523.4,105,523.4,167.4S472.7,280.5,410.3,280.5z"/>
	<path d="M134.6,280.5h32.3v32.3h-32.3V280.5z"/>
</g>
</svg>
