<?xml version="1.0" encoding="utf-8"?>
<!-- Generator: Adobe Illustrator 23.1.0, SVG Export Plug-In . SVG Version: 6.00 Build 0)  -->
<svg version="1.1" id="圖層_1" xmlns="http://www.w3.org/2000/svg" xmlns:xlink="http://www.w3.org/1999/xlink" x="0px" y="0px"
	 viewBox="0 0 560 560" style="enable-background:new 0 0 560 560;" xml:space="preserve">
<style type="text/css">
	.st0{fill:#FFFFFF;}
	.st1{fill:#6B6B6B;}
	.st2{fill:#EAA40D;}
</style>
<path class="st0" d="M-1063.9,796.9L-1063.9,796.9c-0.2,0-0.2,0-0.2,0H-1063.9z"/>
<path class="st1" d="M-1063.9,763.5C-1063.9,763.5-1064,763.5-1063.9,763.5c-0.1,0-0.2,0-0.2,0H-1063.9z"/>
<g>
	<path class="st2" d="M149,280.8c0-8.7,3.7-16.2,10-22.5L356.4,60.9c12.5-12.5,32.5-12.5,46.2,0c12.5,12.5,12.5,32.5,0,46.2
		l-175,175l175,175c12.5,12.5,12.5,32.5,0,46.2c-12.5,12.5-32.5,12.5-46.2,0L157.7,304.6C151.5,298.3,149,289.6,149,280.8z"/>
</g>
</svg>
