<?xml version="1.0" encoding="utf-8"?>
<!-- Generator: Adobe Illustrator 23.1.0, SVG Export Plug-In . SVG Version: 6.00 Build 0)  -->
<svg version="1.1" id="圖層_1" xmlns="http://www.w3.org/2000/svg" xmlns:xlink="http://www.w3.org/1999/xlink" x="0px" y="0px"
	 viewBox="0 0 560 560" style="enable-background:new 0 0 560 560;" xml:space="preserve">
<style type="text/css">
	.st0{fill:#FFFFFF;}
	.st1{fill:#6B6B6B;}
</style>
<path class="st0" d="M-1063.9,796.9L-1063.9,796.9c-0.2,0-0.2,0-0.2,0H-1063.9z"/>
<path class="st1" d="M-1063.9,763.5C-1063.9,763.5-1064,763.5-1063.9,763.5c-0.1,0-0.2,0-0.2,0H-1063.9z"/>
<path class="st0" d="M506.1,158.9H54.9c-11,0-20-9-20-20V101c0-11,9-20,20-20h451.1c11,0,20,9,20,20v37.9
	C526.1,149.9,517.1,158.9,506.1,158.9z"/>
<path class="st0" d="M506.1,319.5H54.9c-11,0-20-9-20-20v-37.9c0-11,9-20,20-20h451.1c11,0,20,9,20,20v37.9
	C526.1,310.5,517.1,319.5,506.1,319.5z"/>
<path class="st0" d="M506.1,480H54.9c-11,0-20-9-20-20v-37.9c0-11,9-20,20-20h451.1c11,0,20,9,20,20V460
	C526.1,471,517.1,480,506.1,480z"/>
</svg>
