<svg width="17" height="21" viewBox="0 0 17 21" fill="none" xmlns="http://www.w3.org/2000/svg">
<path d="M0 4.51172V7.81155L6.5625 15.6455V21H7.32018L10.2539 20.0055V15.6455L16.8164 7.81155V4.51172H0ZM9.02344 15.1982V19.1234L7.79297 19.5405V15.1982L1.93319 8.20312H14.8832L9.02344 15.1982ZM15.5859 6.97266H1.23047V5.74219H15.5859V6.97266Z" fill="white"/>
<path d="M3.48633 0C3.03401 0 2.66602 0.367992 2.66602 0.820312C2.66602 1.27263 3.03401 1.64062 3.48633 1.64062C3.93865 1.64062 4.30664 1.27263 4.30664 0.820312C4.30664 0.367992 3.93865 0 3.48633 0Z" fill="white"/>
<path d="M8.4082 0C7.95588 0 7.58789 0.367992 7.58789 0.820312C7.58789 1.27263 7.95588 1.64062 8.4082 1.64062C8.86052 1.64062 9.22852 1.27263 9.22852 0.820312C9.22852 0.367992 8.86052 0 8.4082 0Z" fill="white"/>
<path d="M5.94727 2.05078C5.49495 2.05078 5.12695 2.41877 5.12695 2.87109C5.12695 3.32341 5.49495 3.69141 5.94727 3.69141C6.39959 3.69141 6.76758 3.32341 6.76758 2.87109C6.76758 2.41877 6.39959 2.05078 5.94727 2.05078Z" fill="white"/>
<path d="M10.8691 2.05078C10.4168 2.05078 10.0488 2.41877 10.0488 2.87109C10.0488 3.32341 10.4168 3.69141 10.8691 3.69141C11.3215 3.69141 11.6895 3.32341 11.6895 2.87109C11.6895 2.41877 11.3215 2.05078 10.8691 2.05078Z" fill="white"/>
<path d="M13.3301 0C12.8778 0 12.5098 0.367992 12.5098 0.820312C12.5098 1.27263 12.8778 1.64062 13.3301 1.64062C13.7824 1.64062 14.1504 1.27263 14.1504 0.820312C14.1504 0.367992 13.7824 0 13.3301 0Z" fill="white"/>
</svg>
