<?xml version="1.0" encoding="utf-8"?>
<!-- Generator: Adobe Illustrator 23.1.0, SVG Export Plug-In . SVG Version: 6.00 Build 0)  -->
<svg version="1.1" id="圖層_1" xmlns="http://www.w3.org/2000/svg" xmlns:xlink="http://www.w3.org/1999/xlink" x="0px" y="0px"
	 viewBox="0 0 560 560" style="enable-background:new 0 0 560 560;" xml:space="preserve">
<style type="text/css">
	.st0{fill:#FFFFFF;}
	.st1{fill:#6B6B6B;}
	.st2{fill:#3DD158;}
</style>
<path class="st0" d="M-1063.9,796.9L-1063.9,796.9c-0.2,0-0.2,0-0.2,0H-1063.9z"/>
<path class="st1" d="M-1063.9,763.5C-1063.9,763.5-1064,763.5-1063.9,763.5c-0.1,0-0.2,0-0.2,0H-1063.9z"/>
<g>
	<g>
		<path class="st2" d="M482.4,264.3L331.8,113.6c-4.3-4.3-10-6.7-16.1-6.7s-11.8,2.4-16.1,6.7l-13.7,13.7c-4.3,4.3-6.7,10-6.7,16.1
			s2.4,12,6.7,16.3l87.9,88.1H94.4c-12.6,0-22.5,9.9-22.5,22.4v19.3c0,12.6,9.9,23.4,22.5,23.4h280.2l-88.9,88.6
			c-4.3,4.3-6.7,9.9-6.7,16s2.4,11.8,6.7,16.1l13.7,13.6c4.3,4.3,10,6.6,16.1,6.6s11.8-2.4,16.1-6.7l150.7-150.7
			c4.3-4.3,6.7-10.1,6.7-16.2C489.1,274.4,486.7,268.6,482.4,264.3z"/>
	</g>
</g>
</svg>
