<?xml version="1.0" encoding="utf-8"?>
<!-- Generator: Adobe Illustrator 23.1.0, SVG Export Plug-In . SVG Version: 6.00 Build 0)  -->
<svg version="1.1" id="圖層_1" xmlns="http://www.w3.org/2000/svg" xmlns:xlink="http://www.w3.org/1999/xlink" x="0px" y="0px"
	 viewBox="0 0 560 560" style="enable-background:new 0 0 560 560;" xml:space="preserve">
<style type="text/css">
	.st0{fill:#FFFFFF;}
	.st1{fill:#6B6B6B;}
	.st2{fill:#3DD158;}
</style>
<path class="st0" d="M-1063.9,796.9L-1063.9,796.9c-0.2,0-0.2,0-0.2,0H-1063.9z"/>
<path class="st1" d="M-1063.9,763.5C-1063.9,763.5-1064,763.5-1063.9,763.5c-0.1,0-0.2,0-0.2,0H-1063.9z"/>
<path class="st2" d="M240.9,263.6H40.1c-11.2,0-20.4-9.1-20.4-20.4V42.4c0-11.2,9.1-20.4,20.4-20.4h200.9c11.2,0,20.4,9.1,20.4,20.4
	v200.9C261.3,254.5,252.2,263.6,240.9,263.6z M51.6,231.7h177.8V53.9H51.6V231.7z"/>
<path class="st2" d="M522.9,263.6H322.1c-11.2,0-20.4-9.1-20.4-20.4V42.4c0-11.2,9.1-20.4,20.4-20.4h200.9
	c11.2,0,20.4,9.1,20.4,20.4v200.9C543.3,254.5,534.2,263.6,522.9,263.6z M333.6,231.7h177.8V53.9H333.6V231.7z"/>
<path class="st2" d="M240.9,539H40.1c-11.2,0-20.4-9.1-20.4-20.4V317.8c0-11.2,9.1-20.4,20.4-20.4h200.9c11.2,0,20.4,9.1,20.4,20.4
	v200.9C261.3,529.9,252.2,539,240.9,539z M51.6,507.1h177.8V329.3H51.6V507.1z"/>
<g>
	<g>
		<path class="st2" d="M528.1,418.8c0,4.4-1.9,8.1-5,11.3l-98.8,98.8c-6.3,6.3-16.3,6.3-23.1,0c-6.3-6.3-6.3-16.3,0-23.1l87.5-87.5
			l-87.5-87.5c-6.3-6.3-6.3-16.3,0-23.1c6.3-6.3,16.3-6.3,23.1,0l99.4,99.4C526.9,410.1,528.1,414.4,528.1,418.8z"/>
	</g>
	<path class="st2" d="M343.3,534.6c-8.8,0-16-7.1-16-16V317.8c0-8.8,7.1-16,16-16s16,7.1,16,16v200.9
		C359.2,527.5,352.1,534.6,343.3,534.6z"/>
</g>
</svg>
