<?xml version="1.0" encoding="utf-8"?>
<!-- Generator: Adobe Illustrator 24.0.2, SVG Export Plug-In . SVG Version: 6.00 Build 0)  -->
<svg version="1.1" id="圖層_1" xmlns="http://www.w3.org/2000/svg" xmlns:xlink="http://www.w3.org/1999/xlink" x="0px" y="0px"
	 viewBox="0 0 560 560" style="enable-background:new 0 0 560 560;" xml:space="preserve">
<path d="M281.4,523.1c10.8,0,20.1-1.5,30.9-1.5l-3.1-29.3c0,0,10.8-43.2,10.8-44.8c0-1.5-10.8-40.1-10.8-40.1l-17-32.4l15.4-34
	l-15.4-4.6l-18.5-18.5l-40.1-9.3l-13.9-27.8v17h-6.2L178,249.9v-38.6l-24.7-41.7l-40.1,7.7H85.4L73,168l17-13.9l-17,4.6
	c-21.6,35.5-34,77.2-34,122C39.1,415.1,147.1,523.1,281.4,523.1z"/>
<path d="M171.8,110.9l20.1-10.8l21.6,6.2l35.5-1.5l13.9-20.1l18.5,3.1l43.2-4.6L337,69.3l17-10.8l23.2,3.1l9.3-1.5
	c-30.9-15.4-66.4-23.2-103.4-23.2c-77.2,1.5-143.6,35.5-188.3,89.5l33.8-9.3L171.8,110.9z M292.3,63.1L317,49.2l15.4,9.3l-23.2,17
	L287.6,77l-9.3-6.2L292.3,63.1z M218.2,64.6l10.8,4.6l13.9-4.6l7.7,13.9l-32.4,9.3l-15.4-9.3C202.7,77,218.2,67.7,218.2,64.6z"/>
<path d="M377.2,107.9l-20.1-17l-23.2-4.6v10.8l21.6,21.6l10.8,12.3l-12.4,6.2l-9.3-3.1l-15.4-6.2v-12.3l-20.1-7.7l-6.2,27.8
	l-20.1,4.6l1.5,15.4l26.2,4.6l6.2-23.2l21.6,3.1l9.3,6.2H363l10.8,21.6l29.3,29.3l-1.5,10.8l-23.2-1.5l-40.1,20.1l-29.3,34
	l-3.1,15.4h-10.8l-20.1-9.3l-18.5,9.3l4.6,20.1l7.7-9.3h13.9l-1.5,18.5l12.4,3.1l12.4,13.9l20.1-6.2l21.6,3.1l26.2,6.2l12.3,1.5
	l21.6,24.7l41.7,24.7L421.9,429l-29.3,13.9l-10.8,29.3L340.1,500l-4.6,15.4c106.5-26.2,185.2-122,185.2-236.2
	c3.1-47.8-12.3-94.1-37-132.7L476,148l-38.6,3.1l-10.8,17l-7.7-3.1L388,137.2l-4.6-13.9L377.2,107.9z"/>
</svg>
