<?xml version="1.0" encoding="utf-8"?>
<!-- Generator: Adobe Illustrator 24.0.2, SVG Export Plug-In . SVG Version: 6.00 Build 0)  -->
<svg version="1.1" xmlns="http://www.w3.org/2000/svg" xmlns:xlink="http://www.w3.org/1999/xlink" x="0px" y="0px"
	 viewBox="0 0 560 560" style="enable-background:new 0 0 560 560;" xml:space="preserve">
<path d="M-1063.9,796.9L-1063.9,796.9c-0.2,0-0.2,0-0.2,0H-1063.9z"/>
<path d="M-1063.9,763.5C-1063.9,763.5-1064,763.5-1063.9,763.5c-0.1,0-0.2,0-0.2,0H-1063.9z"/>
<path d="M280,508.4c-1.2,0-2.5-0.2-3.7-0.5c-2.3-0.6-57.7-15.2-113.2-50.8c-32.2-20.6-57.9-44.1-76.4-69.9
	c-23.6-32.8-35.5-69.1-35.5-108.1V67c0-5.4,3-10.4,7.9-12.9c4.8-2.5,10.6-2.1,15.1,1.1c0.4,0.3,43.1,29.9,106.1,29.9
	c60.4,0,87.6-26.4,89.3-28.1c2.7-3,6.4-4.7,10.5-4.7c4.1,0,7.8,1.7,10.5,4.7c1.7,1.7,29,28.1,89.3,28.1c63,0,105.7-29.6,106.1-29.9
	c4.4-3.1,10.2-3.5,15.1-1c4.8,2.5,7.8,7.4,7.8,12.9v212.2c0,39-11.9,75.3-35.5,108.1c-18.5,25.8-44.3,49.3-76.4,69.9
	c-55.5,35.5-110.9,50.2-113.2,50.8C282.5,508.2,281.2,508.4,280,508.4z M80.2,91.7v187.5c0,60,33.2,111.7,98.6,153.5
	c43.9,28.1,88.4,42.3,101.2,46.1c12.8-3.8,57.4-18,101.2-46.1c65.4-41.9,98.6-93.5,98.6-153.5V91.7c-21.3,10.1-56.2,22.4-100,22.4
	c-51.9,0-84.4-17.4-99.8-28.4c-15.4,11-47.9,28.4-99.8,28.4C136.4,114.1,101.5,101.8,80.2,91.7z"/>
<path d="M367.8,248v-27.3c0-48.4-39.4-87.8-87.8-87.8s-87.8,39.4-87.8,87.8v27.2c-13,2.3-23,13.8-23,27.5v91.9
	c0,15.3,12.6,27.9,27.9,27.9h165.7c15.3,0,27.9-12.6,27.9-27.9v-91.9C390.7,261.8,380.8,250.4,367.8,248z M280,161.9
	c32.4,0,58.8,26.4,58.8,58.8v26.8H221.2v-26.8C221.2,188.3,247.6,161.9,280,161.9z M295.2,337.1v19.6c0,8.4-6.8,15.2-15.2,15.2
	c-8.4,0-15.2-6.8-15.2-15.2v-19.6c-10.6-5.5-17.9-16.6-17.9-29.4c0-18.3,14.8-33.1,33.1-33.1s33.1,14.8,33.1,33.1
	C313.1,320.5,305.8,331.5,295.2,337.1z"/>
</svg>
