<?xml version="1.0" encoding="utf-8"?>
<!-- Generator: Adobe Illustrator 24.0.2, SVG Export Plug-In . SVG Version: 6.00 Build 0)  -->
<svg version="1.1" id="圖層_1" xmlns="http://www.w3.org/2000/svg" xmlns:xlink="http://www.w3.org/1999/xlink" x="0px" y="0px"
	 viewBox="0 0 560 560" style="enable-background:new 0 0 560 560;" xml:space="preserve">
<path d="M-1063.9,796.9L-1063.9,796.9c-0.2,0-0.2,0-0.2,0H-1063.9z"/>
<path d="M-1063.9,763.5C-1063.9,763.5-1064,763.5-1063.9,763.5c-0.1,0-0.2,0-0.2,0H-1063.9z"/>
<path d="M473.7,224.2H458v-20.8C458,105,378,25,279.6,25s-178.4,80-178.4,178.4v20.7H86.6c-15.5,0-28.2,16.1-28.2,35.9v215.5
	c0,19.8,12.7,36,28.2,36h387.1c15.5,0,28.2-16.2,28.2-36V260C501.9,240.1,489.2,224.2,473.7,224.2z M155.3,203.3
	c0-68.5,55.7-124.2,124.2-124.2s124.2,55.7,124.2,124.2v20.8L155.3,224L155.3,203.3L155.3,203.3z M311.5,362.6v71.6
	c0,8.2-6.8,15.1-15.1,15.1h-33.8c-8.2,0-15.1-6.9-15.1-15.1v-71.6c-8-7.9-12.6-18.6-12.6-30.6c0-22.7,17.6-42.2,39.9-43.1
	c2.3-0.1,7.1-0.1,9.5,0c22.3,0.9,39.9,20.4,39.9,43.1C324.1,343.8,319.5,354.7,311.5,362.6z"/>
</svg>
