<?xml version="1.0" encoding="utf-8"?>
<!-- Generator: Adobe Illustrator 24.0.2, SVG Export Plug-In . SVG Version: 6.00 Build 0)  -->
<svg version="1.1" id="圖層_1" xmlns="http://www.w3.org/2000/svg" xmlns:xlink="http://www.w3.org/1999/xlink" x="0px" y="0px"
	 viewBox="0 0 560 560" style="enable-background:new 0 0 560 560;" xml:space="preserve">
<path d="M-1063.9,796.9L-1063.9,796.9c-0.2,0-0.2,0-0.2,0H-1063.9z"/>
<path d="M-1063.9,763.5C-1063.9,763.5-1064,763.5-1063.9,763.5c-0.1,0-0.2,0-0.2,0H-1063.9z"/>
<g>
	<path d="M349.9,399.9c0,10.6-8.7,19.3-19.3,19.3h-74.4V153.1c0-18.6-10.3-27.9-23.6-33.8L105.2,63.9h225.4
		c10.6,0,19.3,8.7,19.3,19.3V158h29V83.2c0-26.6-21.7-48.3-48.3-48.3H82.1c-26.6,0-48.3,21.7-48.3,48.3v316.7
		c0,19.3,11.4,36.1,27.9,43.8c3,2,6.4,3.6,10.2,4.7l160.7,69.9c17.4,7.9,23.6-5.1,23.6-23.7v-46.4h74.4c26.6,0,48.3-21.7,48.3-48.3
		V275.5h-29V399.9z"/>
	<path d="M525.3,205.4l-77.4-77.2c-7.8-7.8-20.5-7.8-28.3,0s-7.8,20.5,0,28.3l40.9,40.8h-142c-11,0-20,9-20,20s9,20,20,20H465
		l-45.4,45.2c-7.8,7.8-7.8,20.5,0,28.3c3.9,3.9,9,5.9,14.2,5.9c5.1,0,10.2-1.9,14.1-5.8l77.4-77.2c3.8-3.8,5.9-8.8,5.9-14.2
		S529.1,209.2,525.3,205.4z"/>
</g>
</svg>
