<?xml version="1.0" encoding="utf-8"?>
<!-- Generator: Adobe Illustrator 23.1.0, SVG Export Plug-In . SVG Version: 6.00 Build 0)  -->
<svg version="1.1" xmlns="http://www.w3.org/2000/svg" xmlns:xlink="http://www.w3.org/1999/xlink" x="0px" y="0px"
	 viewBox="0 0 560 560" style="enable-background:new 0 0 560 560;" xml:space="preserve">
<g>
	<path d="M208.1,294.9h28.8v28.8h-28.8V294.9z"/>
	<g>
		<path d="M526,367.3c0-71.6-48.2-134.1-116.2-152.9C405.5,114.7,323.1,35,222.5,35C119.1,35,35,119.1,35,222.5
			c0,33.7,9,66.5,26,95.3l-25.3,91.5l91.5-25.3c26.5,15.7,56.3,24.5,87.2,25.8c18.8,68,81.4,116.2,152.9,116.2
			c28.6,0,56.3-7.6,80.8-22.1l77.3,21.4L504,448C518.4,423.6,526,395.9,526,367.3z M131.7,352.9l-54.8,15.2l15.2-54.8l-3.5-5.4
			c-16.3-25.5-24.9-55-24.9-85.4c0-87.5,71.2-158.7,158.7-158.7S381.2,135,381.2,222.5S310,381.2,222.5,381.2
			c-30.4,0-59.9-8.6-85.4-24.9L131.7,352.9z M484,484l-40.6-11.2l-5.4,3.5c-21,13.7-45.5,20.9-70.7,20.9
			c-56.3,0-105.7-36.4-123.2-88.5c86.1-9.9,154.7-78.5,164.6-164.6c52.1,17.5,88.5,66.9,88.5,123.2c0,25.2-7.2,49.6-20.9,70.7
			l-3.5,5.4L484,484z"/>
		<path d="M251.3,178.8c0,8.2-3.3,15.7-9.4,21.2l-33.8,30.9V266h28.8v-22.4l24.4-22.4c11.9-10.9,18.7-26.4,18.7-42.5
			c0-31.7-25.8-57.5-57.5-57.5S165,147,165,178.7h28.8c0-15.9,12.9-28.8,28.8-28.8S251.3,163,251.3,178.8z"/>
	</g>
</g>
</svg>
