<?xml version="1.0" encoding="utf-8"?>
<!-- Generator: Adobe Illustrator 23.1.0, SVG Export Plug-In . SVG Version: 6.00 Build 0)  -->
<svg version="1.1" xmlns="http://www.w3.org/2000/svg" xmlns:xlink="http://www.w3.org/1999/xlink" x="0px" y="0px"
	 viewBox="0 0 560 560" style="enable-background:new 0 0 560 560;" xml:space="preserve">
<g>
	<path d="M537.3,271.5L296.9,57.9c-9.5-8.4-23.8-8.4-33.2,0l-240,213.5c-10.3,9.2-11.2,25-2.1,35.3
		c9.2,10.3,25,11.2,35.3,2.1l15.4-13.7v199.8c0,8,6.5,14.5,14.5,14.5h387.4c8,0,14.5-6.5,14.5-14.5V295.2l15.4,13.7
		c4.8,4.2,10.7,6.3,16.6,6.3c6.9,0,13.8-2.8,18.7-8.4C548.6,296.5,547.6,280.7,537.3,271.5z M459.7,480.4H101.3V269.3l179-159.2
		l179.4,159.4V480.4z"/>
	<path d="M181.3,308.9c0,54.7,44.5,99.2,99.2,99.2c18.8,0,36.5-5.3,51.5-14.4l54.3,54.3c2.8,2.8,6.5,4.2,10.3,4.2
		s7.4-1.4,10.3-4.2c5.7-5.7,5.7-14.8,0-20.5l-52.4-52.4c15.7-17.6,25.3-40.8,25.3-66.1c0-54.7-44.5-99.2-99.2-99.2
		S181.3,254.2,181.3,308.9z M280.5,238.7c38.7,0,70.2,31.5,70.2,70.2c0,38.7-31.5,70.2-70.2,70.2c-38.7,0-70.2-31.5-70.2-70.2
		C210.3,270.2,241.8,238.7,280.5,238.7z"/>
</g>
</svg>
