<?xml version="1.0" encoding="utf-8"?>
<!-- Generator: Adobe Illustrator 24.0.2, SVG Export Plug-In . SVG Version: 6.00 Build 0)  -->
<svg version="1.1" xmlns="http://www.w3.org/2000/svg" xmlns:xlink="http://www.w3.org/1999/xlink" x="0px" y="0px"
	 viewBox="0 0 560 560" style="enable-background:new 0 0 560 560;" xml:space="preserve">
<path d="M-1063.9,796.9L-1063.9,796.9c-0.2,0-0.2,0-0.2,0H-1063.9z"/>
<path d="M-1063.9,763.5C-1063.9,763.5-1064,763.5-1063.9,763.5c-0.1,0-0.2,0-0.2,0H-1063.9z"/>
<g>
	<path d="M428.7,140.9H131.3c-11.5,0-20.2,8.7-20.2,20.2c0,10.1,8.7,20.2,20.2,20.2h297.4c11.5,0,20.2-10.1,20.2-20.2
		C448.9,149.6,440.2,140.9,428.7,140.9z"/>
	<path d="M428.7,259.3H131.3c-11.5,0-20.2,8.7-20.2,20.2c0,11.5,8.7,20.2,20.2,20.2h297.4c11.5,0,20.2-8.7,20.2-20.2
		C448.9,267.9,440.2,259.3,428.7,259.3z"/>
	<path d="M428.7,377.7H131.3c-11.5,0-20.2,8.7-20.2,20.2c0,11.5,8.7,20.2,20.2,20.2h297.4c11.5,0,20.2-8.7,20.2-20.2
		C448.9,386.3,440.2,377.7,428.7,377.7z"/>
	<path d="M437.3,57.2H122.7c-35.8,0-65,29.1-65,65v314.7c0,35.8,29.1,65,65,65h314.7c35.8,0,65-29.1,65-65V122.2
		C502.3,86.3,473.2,57.2,437.3,57.2z M487.9,436.8c0,27.9-22.7,50.5-50.5,50.5H122.7c-27.9,0-50.5-22.7-50.5-50.5V122.2
		c0-27.9,22.7-50.5,50.5-50.5h314.7c27.9,0,50.5,22.7,50.5,50.5V436.8z"/>
</g>
</svg>
