<?xml version="1.0" encoding="utf-8"?>
<!-- Generator: Adobe Illustrator 24.0.2, SVG Export Plug-In . SVG Version: 6.00 Build 0)  -->
<svg version="1.1" xmlns="http://www.w3.org/2000/svg" xmlns:xlink="http://www.w3.org/1999/xlink" x="0px" y="0px"
	 viewBox="0 0 560 560" style="enable-background:new 0 0 560 560;" xml:space="preserve">
<g>
	<g>
		<path d="M64,158.4h88.9c0,0,7,0,7,9.4c0,9.4-16.1,10.3-16.1,10.3v146.6c0,0-2.6,47.3-77.8,47.3v-18.1c0,0,10.8-8.6,10.8-20.2
			c0-11.6,0-150.4,0-150.4s-1.3-7.4-10-7.4s-11.2-4.5-11.2-9.1C55.8,162.6,59.1,158.4,64,158.4z"/>
		<path d="M55.8,354.1v18.1c0,0,0.4,0-9.4,0S1,356.1,1,320.3s36.3-32.1,36.3-32.1s27.6,5.3,27.6,30.5c0,25.2-23.1,29.6-23.1,29.6
			S45.5,354.1,55.8,354.1z"/>
	</g>
	<path d="M261.7,348c-2.9-1.6-2.6-9.4-2.6-9.4v-54.4v-30.9v-67.5c0,0-0.4-7.8,2.6-9.4c2.9-1.6,14.8,0,14.8-9.1
		c0-9.1-7.8-8.6-7.8-8.6h-43.3h-0.8H183c0,0-7.8-0.4-7.8,8.6s11.9,7.5,14.8,9.1c2.9,1.6,2.6,9.4,2.6,9.4v67.5v30.9v54.4
		c0,0,0.4,7.8-2.6,9.4c-2.9,1.6-14.8,6.6-14.8,15.7s7.8,8.6,7.8,8.6h41.6h0.9h43.3c0,0,7.8,0.4,7.8-8.6
		C276.6,354.6,264.6,349.6,261.7,348z"/>
	<path d="M545.2,348c-2.9-1.6-2.6-9.4-2.6-9.4v-54.4v-30.9v-67.5c0,0-0.4-7.8,2.6-9.4c2.9-1.6,14.8,0,14.8-9.1
		c0-9.1-7.8-8.6-7.8-8.6h-43.3H508h-41.6c0,0-7.8-0.4-7.8,8.6s11.9,7.5,14.8,9.1c2.9,1.6,2.6,9.4,2.6,9.4v67.5v30.9v54.4
		c0,0,0.4,7.8-2.6,9.4c-2.9,1.6-14.8,6.6-14.8,15.7s7.8,8.6,7.8,8.6H508h0.9h43.3c0,0,7.8,0.4,7.8-8.6
		C560,354.6,548.1,349.6,545.2,348z"/>
	<g>
		<path d="M381.2,372.4V185.7c0,0-0.4-7.8,2.6-9.4c2.9-1.6,14.8,0,14.8-9.1c0-9.1-7.8-8.6-7.8-8.6h-43.3h-0.9H305
			c0,0-7.8-0.4-7.8,8.6s11.9,7.5,14.8,9.1c2.9,1.6,2.6,9.4,2.6,9.4v152.8c0,0,0.4,7.8-2.6,9.4c-2.9,1.6-14.8,6.6-14.8,15.7
			s7.8,8.6,7.8,8.6"/>
		<path d="M391.5,351.3v21h59.7v-68.8c0,0-0.4-7-9.1-7c-8.6,0-8.6,8.6-9.8,13.5s-6.6,17.3-17.3,28.4
			C404.3,349.6,391.5,351.3,391.5,351.3z"/>
	</g>
</g>
</svg>
