<?xml version="1.0" encoding="utf-8"?>
<!-- Generator: Adobe Illustrator 24.0.2, SVG Export Plug-In . SVG Version: 6.00 Build 0)  -->
<svg version="1.1" id="圖層_1" xmlns="http://www.w3.org/2000/svg" xmlns:xlink="http://www.w3.org/1999/xlink" x="0px" y="0px"
	 viewBox="0 0 560 560" style="enable-background:new 0 0 560 560;" xml:space="preserve">
<path d="M-1063.9,796.9L-1063.9,796.9c-0.2,0-0.2,0-0.2,0H-1063.9z"/>
<path d="M-1063.9,763.5C-1063.9,763.5-1064,763.5-1063.9,763.5c-0.1,0-0.2,0-0.2,0H-1063.9z"/>
<path d="M438.4,245.5c0-113.5-66.2-152.2-128.1-160.8c0-0.6,0.1-1.2,0.1-1.9c0-14.3-13.7-25.7-30.5-25.7
	c-16.8,0-30.1,11.4-30.1,25.7c0,0.7,0,1.2,0.1,1.9c-62.1,8.7-128.6,47.4-128.6,161c0,132.4-35.7,146.6-83.6,183.8H522
	C474.4,392.2,438.4,377.9,438.4,245.5z"/>
<path d="M280.3,503.9c33.8,0,61.5-23.2,65.2-50H215.1C218.6,480.7,246.5,503.9,280.3,503.9z"/>
</svg>
