<?xml version="1.0" encoding="utf-8"?>
<!-- Generator: Adobe Illustrator 24.0.2, SVG Export Plug-In . SVG Version: 6.00 Build 0)  -->
<svg version="1.1" xmlns="http://www.w3.org/2000/svg" xmlns:xlink="http://www.w3.org/1999/xlink" x="0px" y="0px"
	 viewBox="0 0 560 560" style="enable-background:new 0 0 560 560;" xml:space="preserve">
<path d="M-1063.9,796.9L-1063.9,796.9c-0.2,0-0.2,0-0.2,0H-1063.9z"/>
<path d="M-1063.9,763.5C-1063.9,763.5-1064,763.5-1063.9,763.5c-0.1,0-0.2,0-0.2,0H-1063.9z"/>
<g>
	<path d="M263.3,414.5L49.8,201c-13-13-13-33.8,0-48.1c13-13,33.8-13,48.1,0L280,334.9l182.1-182.1
		c13-13,33.8-13,48.1,0c13,13,13,33.8,0,48.1L303.4,407.8C293.1,418.1,276.3,418.6,263.3,414.5z"/>
</g>
</svg>
