<?xml version="1.0" encoding="utf-8"?>
<!-- Generator: Adobe Illustrator 24.0.2, SVG Export Plug-In . SVG Version: 6.00 Build 0)  -->
<svg version="1.1" xmlns="http://www.w3.org/2000/svg" xmlns:xlink="http://www.w3.org/1999/xlink" x="0px" y="0px"
	 viewBox="0 0 560 560" style="enable-background:new 0 0 560 560;" xml:space="preserve">
<path d="M-1063.9,796.9L-1063.9,796.9c-0.2,0-0.2,0-0.2,0H-1063.9z"/>
<path d="M-1063.9,763.5C-1063.9,763.5-1064,763.5-1063.9,763.5c-0.1,0-0.2,0-0.2,0H-1063.9z"/>
<g>
	<path d="M440.4,119.6c-8.7-8.7-20.2-8.7-28.9,0L280,251.1L148.5,119.6c-8.7-8.7-20.2-8.7-28.9,0
		c-8.7,8.7-8.7,20.2,0,28.9L251.1,280L119.6,411.5c-8.7,8.7-8.7,20.2,0,28.9c8.7,8.7,20.2,8.7,28.9,0L280,308.9l131.5,131.5
		c8.7,8.7,20.2,8.7,28.9,0c8.7-8.7,8.7-20.2,0-28.9L308.9,280l131.5-131.5C449,139.9,449,128.3,440.4,119.6z"/>
	<path d="M437.5,57.5h-315c-35.9,0-65,29.2-65,65v315c0,35.9,29.2,65,65,65h315c35.9,0,65-29.2,65-65v-315
		C502.5,86.7,473.3,57.5,437.5,57.5z M488,437.5c0,27.9-22.7,50.6-50.6,50.6h-315c-27.9,0-50.6-22.7-50.6-50.6v-315
		c0-27.9,22.7-50.6,50.6-50.6h315c27.9,0,50.6,22.7,50.6,50.6V437.5z"/>
</g>
</svg>
