<?xml version="1.0" encoding="utf-8"?>
<!-- Generator: Adobe Illustrator 23.1.0, SVG Export Plug-In . SVG Version: 6.00 Build 0)  -->
<svg version="1.1" id="圖層_1" xmlns="http://www.w3.org/2000/svg" xmlns:xlink="http://www.w3.org/1999/xlink" x="0px" y="0px"
	 viewBox="0 0 560 560" style="enable-background:new 0 0 560 560;" xml:space="preserve">
<path d="M-1063.9,796.9L-1063.9,796.9c-0.2,0-0.2,0-0.2,0H-1063.9z"/>
<path d="M-1063.9,763.5C-1063.9,763.5-1064,763.5-1063.9,763.5c-0.1,0-0.2,0-0.2,0H-1063.9z"/>
<path d="M277.3,276.6c33.9,0,63.2-12.2,87.2-36.1c24-24,36.1-53.3,36.1-87.2s-12.2-63.2-36.1-87.2c-24-24-53.3-36.1-87.2-36.1
	s-63.2,12.2-87.2,36.1s-36.2,53.3-36.2,87.2s12.2,63.2,36.1,87.2C214,264.5,243.4,276.6,277.3,276.6z M211.3,87.3
	c18.4-18.4,40-27.3,66-27.3s47.6,8.9,66,27.3s27.3,40,27.3,66s-8.9,47.6-27.3,66s-40,27.3-66,27.3s-47.6-8.9-66-27.3
	s-27.3-40-27.3-66C183.9,127.3,192.9,105.7,211.3,87.3z"/>
<path d="M493,414.7c-0.7-10-2.1-18.9-4.1-30.4c-2.1-11.6-4.8-21.5-8-31.5c-3.3-10.3-7.8-19.6-13.4-29.3c-5.8-10.2-12.6-19-20.2-26.3
	c-8-7.6-17.7-13.7-29-18.2c-11.2-4.4-23.7-6.7-37-6.7c-5.2,0-10.3,2.1-20,8.5c-6,3.9-13,8.4-20.9,13.5c-6.7,4.3-15.8,8.3-27,11.9
	c-10.9,3.5-22.1,5.3-33,5.3c-11,0-22.1-1.8-33-5.3c-11.2-3.6-20.3-7.6-27-11.9c-7.8-5-14.8-9.5-20.9-13.5c-9.8-6.4-14.8-8.5-20-8.5
	c-13.3,0-25.8,2.3-37,6.7c-11.3,4.5-21,10.6-29,18.2c-7.6,7.3-14.4,16.1-20.2,26.3c-5.6,9.8-10.1,19-13.4,29.3
	c-3.2,10-5.9,19.9-8,31.5c-2.1,11.5-3.5,20.4-4.1,30.4c-0.7,9.8-1,18-1,28.2c0,26.7,8.5,48.4,25.3,64.3
	c16.6,15.8,38.5,23.8,65.1,23.8h246.5c26.6,0,48.5-8,65.1-23.7c16.8-15.9,25.3-37.6,25.3-64.3C494.1,432.6,493.7,424.5,493,414.7z
	 M448.1,485.5c-10.9,10.4-25.4,15.5-44.4,15.5H157.3c-18.9,0-33.4-5.1-44.4-15.5C102.2,475.3,97,461.4,97,442.9
	c0-9.6,0.3-17.1,0.9-26.2c0.6-8.9,1.9-16.7,3.8-27.1c1.8-10.3,4.2-18.9,7-27.7c2.7-8.4,6.3-15.7,10.9-23.7
	c4.3-7.6,9.3-14.2,14.8-19.4c5.1-4.9,11.6-9,19.3-12c7.1-2.8,15-4.3,23.6-4.6c1.1,0.6,2.9,1.6,6,3.6c6.2,4,13.3,8.6,21.1,13.6
	c8.9,5.6,20.3,10.8,33.9,15.2c13.9,4.5,28.2,6.8,42.3,6.8c14.1,0,28.3-2.3,42.3-6.8c13.6-4.4,25.1-9.5,33.9-15.2
	c8-5.1,15-9.6,21.1-13.6c3-2,4.9-3,6-3.6c8.6,0.2,16.6,1.8,23.6,4.6c7.6,3,14.1,7.1,19.3,12c5.5,5.3,10.5,11.8,14.8,19.4
	c4.5,8,8.2,15.3,10.9,23.7c2.8,8.8,5.2,17.4,7,27.7c1.9,10.4,3.1,18.2,3.8,27.1l0,0c0.6,9.1,1,16.5,1,26.1
	C464.1,461.4,458.8,475.3,448.1,485.5z"/>
</svg>
