<?xml version="1.0" encoding="utf-8"?>
<!-- Generator: Adobe Illustrator 24.0.2, SVG Export Plug-In . SVG Version: 6.00 Build 0)  -->
<svg version="1.1" xmlns="http://www.w3.org/2000/svg" xmlns:xlink="http://www.w3.org/1999/xlink" x="0px" y="0px"
	 viewBox="0 0 560 504" style="enable-background:new 0 0 560 504;" xml:space="preserve">
<path d="M473.9,70.7H86.1c-32.8,0-59.5,26.7-59.5,59.5v244.6c0,32.8,26.7,59.5,59.5,59.5h387.8
	c32.7,0,59.5-26.6,59.6-59.4V130.2C533.4,97.4,506.8,70.7,473.9,70.7z M86.1,99.7h387.9c16.8,0,30.5,13.7,30.5,30.5v13.6
	L279.9,268.3L55.6,143.9v-13.7C55.6,113.4,69.2,99.7,86.1,99.7z M473.8,405.3H86.1c-16.8,0-30.5-13.7-30.5-30.5V177l224.4,124.4
	L504.4,177v197.9C504.4,391.6,490.7,405.3,473.8,405.3z"/>
</svg>
