<?xml version="1.0" encoding="utf-8"?>
<!-- Generator: Adobe Illustrator 24.0.2, SVG Export Plug-In . SVG Version: 6.00 Build 0)  -->
<svg version="1.1" xmlns="http://www.w3.org/2000/svg" xmlns:xlink="http://www.w3.org/1999/xlink" x="0px" y="0px"
	 viewBox="0 0 560 560" style="enable-background:new 0 0 560 560;" xml:space="preserve">
<path d="M-1063.9,796.9L-1063.9,796.9c-0.2,0-0.2,0-0.2,0H-1063.9z"/>
<path d="M-1063.9,763.5C-1063.9,763.5-1064,763.5-1063.9,763.5c-0.1,0-0.2,0-0.2,0H-1063.9z"/>
<path d="M476.2,125.3h-7.8l-0.2-14.1c-0.1-23.6-19.3-42.9-43-42.9H82.3c-23.7,0-43,19.3-43,43c0,1,0,1.9,0.1,2.8
	c-0.1,0.5-0.1,1.1-0.1,1.7v332.4c0,24.5,20,44.5,44.5,44.5h392.4c24.5,0,44.5-20,44.5-44.5v-81.6V251.4v-81.6
	C520.7,145.3,500.7,125.3,476.2,125.3z M82.3,97.3h342.9c7.7,0,14,6.3,14,14c0,0.1,0,0.2,0,0.3l0.2,13.7H83.8
	c-1.4,0-2.6-0.1-3.7-0.2c-6.7-1.1-11.8-6.8-11.8-13.8C68.3,103.6,74.6,97.3,82.3,97.3z M476.2,463.7H83.8c-8.5,0-15.5-7-15.5-15.5
	V152.3c2.3,0.6,4.7,1.2,7.3,1.5c2.2,0.3,4.4,0.5,6.7,0.5h1.5h370.4h22c8.5,0,15.5,7,15.5,15.5v67.1H356.6
	c-13.6,0-24.7,11.1-24.7,24.7v94.8c0,13.6,11.1,24.7,24.7,24.7h135.1v67.1C491.7,456.7,484.7,463.7,476.2,463.7z M491.7,352.1H360.9
	v-86.2h130.8V352.1z"/>
</svg>
