<?xml version="1.0" encoding="utf-8"?>
<!-- Generator: Adobe Illustrator 23.1.0, SVG Export Plug-In . SVG Version: 6.00 Build 0)  -->
<svg version="1.1" id="圖層_1" xmlns="http://www.w3.org/2000/svg" xmlns:xlink="http://www.w3.org/1999/xlink" x="0px" y="0px"
	 viewBox="0 0 376.5 512" style="enable-background:new 0 0 376.5 512;" xml:space="preserve">
<style type="text/css">
	.st0{fill:#292D36;}
	.st1{fill:url(#SVGID_1_);}
</style>
<script  class="active-path" style="" xmlns=""></script>
<path class="st0" d="M293.1,225.4c23.2-11.9,37.7-32.8,34.3-67.6l0,0c-4.7-47.5-45.8-63.4-97.6-67.8l-0.1-66l-40.2,0.1l0.1,64.2
	c-10.5,0-21.3,0.2-32,0.5l-0.2-64.6l-40.1,0.1l0.2,65.9l-81,0.3l0.1,42.9c0,0,29.6-0.6,29.2-0.1c16.3,0,21.6,9.4,23.1,17.5
	l0.4,180.7c-0.7,5.1-3.7,13.3-15.1,13.3c0.5,0.5-29.2,0-29.2,0l-7.8,48l80.9,0v66.7h40.1v-66.1c11,0.2,21.7,0.3,32.1,0.2l-0.1,65.8
	l40.2,0.1v-66.9c67.5-4,114.7-21.2,120.4-84.5C355.5,257.3,331.5,234.5,293.1,225.4z M158.6,136c22.7,0,93.9-7.4,94,39.9l0,0
	c0.1,45.4-71.1,40.2-93.8,40.3L158.6,136z M271.6,300.6c0.1,49.9-85.2,44.4-112.5,44.5l-0.2-88.4
	C186.1,256.6,271.4,248.6,271.6,300.6L271.6,300.6z"/>
<linearGradient id="SVGID_1_" gradientUnits="userSpaceOnUse" x1="185.9882" y1="13.2244" x2="185.9882" y2="428.4874">
	<stop  offset="0" style="stop-color:#FFAC3B"/>
	<stop  offset="1" style="stop-color:#F47D35"/>
</linearGradient>
<path class="st1" d="M285.1,201.4c23.2-11.9,37.7-32.8,34.3-67.6l0,0c-4.7-47.5-45.8-63.4-97.6-67.8l-0.1-66l-40.2,0.1l0.1,64.2
	c-10.5,0-21.3,0.2-32,0.5l-0.2-64.6l-40.1,0.1l0.2,65.9l-81,0.3l0.1,42.9c0,0,29.6-0.6,29.2-0.1c16.3,0,21.6,9.4,23.1,17.5
	l0.4,180.7c-0.7,5.1-3.7,13.3-15.1,13.3c0.5,0.5-29.2,0-29.2,0l-7.8,48l80.9,0v66.7h40.1v-66.1c11,0.2,21.7,0.3,32.1,0.2l-0.1,65.8
	l40.2,0.1v-66.9c67.5-4,114.7-21.2,120.4-84.5C347.5,233.3,323.5,210.5,285.1,201.4z M150.6,112c22.7,0,93.9-7.4,94,39.9l0,0
	c0.1,45.4-71.1,40.2-93.8,40.3L150.6,112z M263.6,276.6c0.1,49.9-85.2,44.4-112.5,44.5l-0.2-88.4
	C178.1,232.6,263.4,224.6,263.6,276.6L263.6,276.6z"/>
</svg>
