<?xml version="1.0" encoding="utf-8"?>
<!-- Generator: Adobe Illustrator 23.1.0, SVG Export Plug-In . SVG Version: 6.00 Build 0)  -->
<svg version="1.1" id="圖層_1" xmlns="http://www.w3.org/2000/svg" xmlns:xlink="http://www.w3.org/1999/xlink" x="0px" y="0px"
	 viewBox="0 0 512 512" style="enable-background:new 0 0 512 512;" xml:space="preserve">
<style type="text/css">
	.st0{fill:#EDF0F1;}
	.st1{fill:#0B8700;}
</style>
<script  class="active-path" style="" xmlns=""></script>
<path class="st0" d="M493,241c0-1.6-0.1-3.2-0.3-4.8V158c0-34-27.6-61.6-61.6-61.6V75.9c0-34-27.6-61.6-61.6-61.6h-308
	C27.6,14.3,0,42,0,75.9v328.5c0,34,27.6,61.6,61.6,61.6h369.5c34,0,61.6-27.6,61.6-61.6v-79.6c0.2-1.6,0.3-3.2,0.3-4.8V241z
	 M61.6,55.4h308c11.3,0,20.5,9.2,20.5,20.5v20.5H61.6c-11.3,0-20.5-9.2-20.5-20.5S50.3,55.4,61.6,55.4z M431.1,424.9H61.6
	c-11.3,0-20.5-9.2-20.5-20.5V134c6.4,2.3,13.3,3.5,20.5,3.5h369.5c11.3,0,20.5,9.2,20.5,20.5v40c-0.6,0-1.1,0-1.7,0H289
	c-23.7,0-43,19.3-43,43v79c0,23.7,19.3,43,43,43h161c0.6,0,1.1,0,1.7,0v41.5C451.7,415.7,442.5,424.9,431.1,424.9z M451,241v79
	c0,0.5-0.5,1-1,1H289c-0.5,0-1-0.5-1-1v-79c0-0.5,0.5-1,1-1h161C450.5,240,451,240.5,451,241z"/>
<path class="st1" d="M493,228c0-1.6-0.1-3.2-0.3-4.8V145c0-34-27.6-61.6-61.6-61.6V62.9c0-34-27.6-61.6-61.6-61.6h-308
	C27.6,1.3,0,29,0,62.9v328.5c0,34,27.6,61.6,61.6,61.6h369.5c34,0,61.6-27.6,61.6-61.6v-79.6c0.2-1.6,0.3-3.2,0.3-4.8V228z
	 M61.6,42.4h308c11.3,0,20.5,9.2,20.5,20.5v20.5H61.6c-11.3,0-20.5-9.2-20.5-20.5S50.3,42.4,61.6,42.4z M431.1,411.9H61.6
	c-11.3,0-20.5-9.2-20.5-20.5V121c6.4,2.3,13.3,3.5,20.5,3.5h369.5c11.3,0,20.5,9.2,20.5,20.5v40c-0.6,0-1.1,0-1.7,0H289
	c-23.7,0-43,19.3-43,43v79c0,23.7,19.3,43,43,43h161c0.6,0,1.1,0,1.7,0v41.5C451.7,402.7,442.5,411.9,431.1,411.9z M451,228v79
	c0,0.5-0.5,1-1,1H289c-0.5,0-1-0.5-1-1v-79c0-0.5,0.5-1,1-1h161C450.5,227,451,227.5,451,228z"/>
</svg>
