<?xml version="1.0" encoding="utf-8"?>
<!-- Generator: Adobe Illustrator 23.1.0, SVG Export Plug-In . SVG Version: 6.00 Build 0)  -->
<svg version="1.1" id="圖層_1" xmlns="http://www.w3.org/2000/svg" xmlns:xlink="http://www.w3.org/1999/xlink" x="0px" y="0px"
	 viewBox="0 0 376.5 512" style="enable-background:new 0 0 376.5 512;" xml:space="preserve">
<style type="text/css">
	.st0{fill:#292D36;}
	.st1{fill:url(#SVGID_1_);}
</style>
<script  class="active-path" style="" xmlns=""></script>
<path class="st0" d="M167.3,476c0,0-0.1,0-0.1,0c-2.2,0-4.3-0.6-6.3-1.8L21,386.5c0,0,0,0,0,0c0,0,0,0,0,0c0,0-0.1,0-0.1-0.1
	c0,0,0,0,0,0c0,0,0,0,0,0c0,0,0,0,0,0c0,0,0,0,0,0c0,0,0,0,0,0c0,0,0,0,0,0c0,0,0,0,0,0c0,0,0,0,0,0c-1.8-1.2-3.2-2.8-4.1-4.7
	c-0.4-0.7-0.6-1.5-0.8-2.2c0,0,0,0,0,0c0,0,0,0,0,0c-0.4-1.5-0.5-3.1-0.2-4.7c0-0.3,0.1-0.6,0.2-0.8l45.6-208.1c0.2-1,0.5-2,1-2.9
	l0,0c0,0,0,0,0,0c0.1-0.1,0.1-0.3,0.2-0.4c0,0,0,0,0,0c0,0,0,0,0,0c0.3-0.5,0.6-1,0.9-1.4l94.2-128.7c2.3-3.1,5.9-4.9,9.6-4.8
	c3.7,0,7.3,1.7,9.6,4.8L271.1,161c0.3,0.4,0.5,0.8,0.8,1.2c0,0,0,0,0,0c0,0,0,0,0,0c0.2,0.3,0.3,0.6,0.5,0.9
	c0.4,0.9,0.7,1.8,0.9,2.7l45.6,208.1c0.1,0.3,0.1,0.5,0.1,0.8c0.3,1.6,0.2,3.3-0.2,4.8c-0.2,0.8-0.5,1.6-0.9,2.3
	c-0.9,1.8-2.2,3.3-3.9,4.5c0,0,0,0,0,0c0,0,0,0,0,0c-0.1,0.1-0.2,0.2-0.3,0.2l-139.9,87.6C171.7,475.4,169.5,476,167.3,476z
	 M203.9,388.3l-15.5,48.8l77.8-48.8H203.9z M68.4,388.3l77.8,48.8l-15.5-48.8H68.4z M155.4,388.3l11.8,37.2l11.8-37.2H155.4z
	 M211.4,364.7H287l-48.4-85.4L211.4,364.7z M147.9,364.7h38.7l36.1-113.4l-55.5-97.9l-55.5,97.9L147.9,364.7z M47.6,364.7h75.6
	l-27.2-85.4L47.6,364.7z M248.4,248.7l30.7,54.1l-19.5-89.2L248.4,248.7z M75,213.7l-19.5,89.2l30.7-54.1L75,213.7z M179.1,126.5
	l53.4,94.2l16.1-50.4l-69.4-94.8V126.5z M86,170.3l16.1,50.4l53.4-94.2V75.4L86,170.3z"/>
<linearGradient id="SVGID_1_" gradientUnits="userSpaceOnUse" x1="167.2728" y1="5.0933" x2="167.2728" y2="436.7511">
	<stop  offset="0" style="stop-color:#FFFFFF"/>
	<stop  offset="1" style="stop-color:#BFBFBF"/>
</linearGradient>
<path class="st1" d="M167.3,450.5c0,0-0.1,0-0.1,0c-2.2,0-4.3-0.6-6.3-1.8L21,361c0,0,0,0,0,0c0,0,0,0,0,0c0,0-0.1,0-0.1-0.1
	c0,0,0,0,0,0c0,0,0,0,0,0c0,0,0,0,0,0c0,0,0,0,0,0c0,0,0,0,0,0c0,0,0,0,0,0c0,0,0,0,0,0c0,0,0,0,0,0c-1.8-1.2-3.2-2.8-4.1-4.7
	c-0.4-0.7-0.6-1.5-0.8-2.2c0,0,0,0,0,0c0,0,0,0,0,0c-0.4-1.5-0.5-3.1-0.2-4.7c0-0.3,0.1-0.6,0.2-0.8l45.6-208.1c0.2-1,0.5-2,1-2.9
	l0,0c0,0,0,0,0,0c0.1-0.1,0.1-0.3,0.2-0.4c0,0,0,0,0,0c0,0,0,0,0,0c0.3-0.5,0.6-1,0.9-1.4L157.7,6.8c2.3-3.1,5.9-4.9,9.6-4.8
	c3.7,0,7.3,1.7,9.6,4.8l94.2,128.7c0.3,0.4,0.5,0.8,0.8,1.2c0,0,0,0,0,0c0,0,0,0,0,0c0.2,0.3,0.3,0.6,0.5,0.9
	c0.4,0.9,0.7,1.8,0.9,2.7l45.6,208.1c0.1,0.3,0.1,0.5,0.1,0.8c0.3,1.6,0.2,3.3-0.2,4.8c-0.2,0.8-0.5,1.6-0.9,2.3
	c-0.9,1.8-2.2,3.3-3.9,4.5c0,0,0,0,0,0c0,0,0,0,0,0c-0.1,0.1-0.2,0.2-0.3,0.2l-139.9,87.6C171.7,449.9,169.5,450.5,167.3,450.5z
	 M203.9,362.8l-15.5,48.8l77.8-48.8H203.9z M68.4,362.8l77.8,48.8l-15.5-48.8H68.4z M155.4,362.8l11.8,37.2l11.8-37.2H155.4z
	 M211.4,339.2H287l-48.4-85.4L211.4,339.2z M147.9,339.2h38.7l36.1-113.4L167.3,128l-55.5,97.9L147.9,339.2z M47.6,339.2h75.6
	l-27.2-85.4L47.6,339.2z M248.4,223.2l30.7,54.1l-19.5-89.2L248.4,223.2z M75,188.1l-19.5,89.2l30.7-54.1L75,188.1z M179.1,101
	l53.4,94.2l16.1-50.4l-69.4-94.8V101z M86,144.7l16.1,50.4l53.4-94.2V49.9L86,144.7z"/>
</svg>
