<?xml version="1.0" encoding="utf-8"?>
<!-- Generator: Adobe Illustrator 23.1.0, SVG Export Plug-In . SVG Version: 6.00 Build 0)  -->
<svg version="1.1" id="圖層_1" xmlns="http://www.w3.org/2000/svg" xmlns:xlink="http://www.w3.org/1999/xlink" x="0px" y="0px"
	 viewBox="0 0 376.5 512" style="enable-background:new 0 0 376.5 512;" xml:space="preserve">
<style type="text/css">
	.st0{fill:#292D36;}
	.st1{fill:url(#SVGID_1_);}
	.st2{fill:url(#SVGID_2_);}
	.st3{fill:url(#SVGID_3_);}
	.st4{fill:url(#SVGID_4_);}
	.st5{fill:url(#SVGID_5_);}
	.st6{fill:url(#SVGID_6_);}
</style>
<script  class="active-path" style="" xmlns=""></script>
<g>
	<polygon class="st0" points="162.4,194 162.4,31.9 15,251.8 	"/>
	<polygon class="st0" points="162.4,342.2 162.4,204.6 9,262.4 	"/>
	<polygon class="st0" points="162.4,480.4 162.4,370.1 15,293 	"/>
	<polygon class="st0" points="172.1,32.2 172.1,194.3 319.6,252.1 	"/>
	<polygon class="st0" points="172.1,205 172.1,342.5 325.5,262.8 	"/>
	<polygon class="st0" points="172.1,480.7 319.6,293.3 172.1,370.4 	"/>
</g>
<g>
	<linearGradient id="SVGID_1_" gradientUnits="userSpaceOnUse" x1="89.7805" y1="50.2014" x2="87.1215" y2="414.4926">
		<stop  offset="0" style="stop-color:#FFFFFF"/>
		<stop  offset="1" style="stop-color:#BFBFBF"/>
	</linearGradient>
	<polygon class="st1" points="162.4,168.5 162.4,6.4 15,226.3 	"/>
	<linearGradient id="SVGID_2_" gradientUnits="userSpaceOnUse" x1="87.3815" y1="50.1605" x2="84.7239" y2="414.2605">
		<stop  offset="0" style="stop-color:#FFFFFF"/>
		<stop  offset="1" style="stop-color:#BFBFBF"/>
	</linearGradient>
	<polygon class="st2" points="162.4,316.6 162.4,179.1 9,236.9 	"/>
	<linearGradient id="SVGID_3_" gradientUnits="userSpaceOnUse" x1="90.9743" y1="50.4384" x2="88.3183" y2="414.3117">
		<stop  offset="0" style="stop-color:#FFFFFF"/>
		<stop  offset="1" style="stop-color:#BFBFBF"/>
	</linearGradient>
	<polygon class="st3" points="162.4,454.8 162.4,344.6 15,267.5 	"/>
	<linearGradient id="SVGID_4_" gradientUnits="userSpaceOnUse" x1="246.3163" y1="51.2897" x2="243.6601" y2="415.1967">
		<stop  offset="0" style="stop-color:#FFFFFF"/>
		<stop  offset="1" style="stop-color:#BFBFBF"/>
	</linearGradient>
	<polygon class="st4" points="172.1,6.7 172.1,168.8 319.6,226.6 	"/>
	<linearGradient id="SVGID_5_" gradientUnits="userSpaceOnUse" x1="249.9641" y1="51.3397" x2="247.3064" y2="415.4396">
		<stop  offset="0" style="stop-color:#FFFFFF"/>
		<stop  offset="1" style="stop-color:#BFBFBF"/>
	</linearGradient>
	<polygon class="st5" points="172.1,179.4 172.1,317 325.5,237.2 	"/>
	<linearGradient id="SVGID_6_" gradientUnits="userSpaceOnUse" x1="247.7025" y1="51.074" x2="245.0432" y2="415.3983">
		<stop  offset="0" style="stop-color:#FFFFFF"/>
		<stop  offset="1" style="stop-color:#BFBFBF"/>
	</linearGradient>
	<polygon class="st6" points="172.1,455.2 319.6,267.8 172.1,344.9 	"/>
</g>
</svg>
