<?xml version="1.0" encoding="utf-8"?>
<!-- Generator: Adobe Illustrator 23.1.0, SVG Export Plug-In . SVG Version: 6.00 Build 0)  -->
<svg version="1.1" id="圖層_1" xmlns="http://www.w3.org/2000/svg" xmlns:xlink="http://www.w3.org/1999/xlink" x="0px" y="0px"
	 viewBox="0 0 376.5 512" style="enable-background:new 0 0 376.5 512;" xml:space="preserve">
<style type="text/css">
	.st0{fill:#292D36;}
	.st1{fill:#FF060A;}
</style>
<script  class="active-path" style="" xmlns=""></script>
<g id="tron">
	<path class="st0" d="M342.3,167.1c-17.1-15.8-40.7-39.9-60-57l-1.1-0.8c-1.9-1.5-4-2.7-6.3-3.5l0,0C228.4,97.1,12.3,56.7,8.1,57.3
		c-1.2,0.2-2.3,0.6-3.3,1.3l-1.1,0.9c-1.3,1.4-2.3,3-3,4.8l-0.3,0.7v4v0.6c24.3,67.7,120.4,289.7,139.3,341.7
		c1.1,3.5,3.3,10.3,7.3,10.6h0.9c2.2,0,11.4-12.2,11.4-12.2s165-200.1,181.7-221.4c2.2-2.6,4.1-5.4,5.7-8.4
		C347.6,175.1,345.9,170.3,342.3,167.1z M201.7,190.4l70.4-58.4l41.3,38.1L201.7,190.4z M174.4,186.6L53.1,87.2l196.2,36.2
		L174.4,186.6z M185.3,212.6l124.1-20L167.5,363.5L185.3,212.6z M36.7,97.1l127.6,108.2l-18.5,158.3L36.7,97.1z"/>
</g>
<g id="tron_1_">
	<path class="st1" d="M342.3,144.1c-17.1-15.8-40.7-39.9-60-57l-1.1-0.8c-1.9-1.5-4-2.7-6.3-3.5l0,0C228.4,74.1,12.3,33.7,8.1,34.3
		c-1.2,0.2-2.3,0.6-3.3,1.3l-1.1,0.9c-1.3,1.4-2.3,3-3,4.8l-0.3,0.7v4v0.6c24.3,67.7,120.4,289.7,139.3,341.7
		c1.1,3.5,3.3,10.3,7.3,10.6h0.9c2.2,0,11.4-12.2,11.4-12.2s165-200.1,181.7-221.4c2.2-2.6,4.1-5.4,5.7-8.4
		C347.6,152.1,345.9,147.3,342.3,144.1z M201.7,167.4l70.4-58.4l41.3,38.1L201.7,167.4z M174.4,163.6L53.1,64.2l196.2,36.2
		L174.4,163.6z M185.3,189.6l124.1-20L167.5,340.5L185.3,189.6z M36.7,74.1l127.6,108.2l-18.5,158.3L36.7,74.1z"/>
</g>
</svg>
