<?xml version="1.0" encoding="utf-8"?>
<!-- Generator: Adobe Illustrator 23.1.0, SVG Export Plug-In . SVG Version: 6.00 Build 0)  -->
<svg version="1.1" id="圖層_1" xmlns="http://www.w3.org/2000/svg" xmlns:xlink="http://www.w3.org/1999/xlink" x="0px" y="0px"
	 viewBox="0 0 491 512" style="enable-background:new 0 0 491 512;" xml:space="preserve">
<style type="text/css">
	.st0{fill:#D8D8D8;}
	.st1{fill:#0084DB;}
</style>
<script  class="active-path" style="" xmlns=""></script>
<path class="st0" d="M460,72.1L1.9,162.2l99.9,95.6l46.5,154.9l7,23.3l18.6-20l60.2-64.6l58.1,45.4L473.6,95L491,66L460,72.1z
	 M56.7,178.5l305.4-60.1L115.4,234.7L56.7,178.5z M148.4,323.3l-19.8-65.6l42.6-20.1l109.7-51.7l0,0l0,0l-119,75.7l-1.3,0.9
	l-12.2,7.8v14.1L148.4,323.3L148.4,323.3z M213.6,335.3L174,377.8v-73.5l0,0L213.6,335.3L213.6,335.3z M285.3,358.1l-33.2-26
	l-11.7-9.1L184,278.7l241.1-153.2L285.3,358.1z"/>
<path class="st1" d="M460,59.1L1.9,149.2l99.9,95.6l46.5,154.9l7,23.3l18.6-20l60.2-64.6l58.1,45.4L473.6,82L491,53L460,59.1z
	 M56.7,165.5l305.4-60.1L115.4,221.7L56.7,165.5z M148.4,310.3l-19.8-65.6l42.6-20.1l109.7-51.7l0,0l0,0l-119,75.7l-1.3,0.9
	l-12.2,7.8v14.1L148.4,310.3L148.4,310.3z M213.6,322.3L174,364.8v-73.5l0,0L213.6,322.3L213.6,322.3z M285.3,345.1l-33.2-26
	l-11.7-9.1L184,265.7l241.1-153.2L285.3,345.1z"/>
</svg>
