<?xml version="1.0" encoding="utf-8"?>
<!-- Generator: Adobe Illustrator 23.1.0, SVG Export Plug-In . SVG Version: 6.00 Build 0)  -->
<svg version="1.1" id="圖層_1" xmlns="http://www.w3.org/2000/svg" xmlns:xlink="http://www.w3.org/1999/xlink" x="0px" y="0px"
	 viewBox="0 0 376.5 512" style="enable-background:new 0 0 376.5 512;" xml:space="preserve">
<style type="text/css">
	.st0{fill:#292D36;}
	.st1{fill:url(#SVGID_1_);}
</style>
<script  class="active-path" style="" xmlns=""></script>
<path class="st0" d="M223.4,78c-24,14.1-38.2,39.6-38.2,66.4c0,14.1,5.7,28.3,12.8,41c5.7,11.3,8.4,31.1-11.3,41
	c-14.1,8.4-32.6,2.8-41-11.3c-8.4-11.3-18.3-22.7-31.1-31.1c-24-14.1-52.3-14.1-76.3,0C14.2,198.1,0,223.6,0,250.5
	c0,26.9,14.1,52.3,38.2,66.5c24,14.1,52.3,14.1,76.3,0c12.8-7.1,22.7-18.3,29.7-31.1c5.7-9.9,21.2-22.7,41-11.3
	c14.1,8.4,18.3,26.9,11.3,41c-7.1,12.8-11.3,26.9-11.3,41c0,26.9,14.1,52.3,38.2,66.4c24,14.1,52.3,14.1,76.3,0
	c24-14.1,38.2-39.6,38.2-66.4c0-26.9-14.1-52.3-38.2-66.5c-12.8-7.1-26.9-9.9-42.4-9.9c-12.8,0-29.7-8.4-29.7-29.7
	c0-17,12.8-29.7,29.7-29.7c14.1,0,29.7-2.8,42.4-9.9c24-14.1,38.2-39.6,38.2-66.4s-14.1-52.3-38.2-66.4c-11.3-7.1-25.4-9.9-38.2-9.9
	C248.9,68.1,234.7,71,223.4,78"/>
<linearGradient id="SVGID_1_" gradientUnits="userSpaceOnUse" x1="-51" y1="354.0375" x2="219.4009" y2="354.0375" gradientTransform="matrix(1.25 0 0 -1.25 63.75 674.25)">
	<stop  offset="0" style="stop-color:#11AAE2"/>
	<stop  offset="0.685" style="stop-color:#0880B7"/>
	<stop  offset="1" style="stop-color:#017AB8"/>
</linearGradient>
<path class="st1" d="M223.4,58.8c-24,14.1-38.2,39.6-38.2,66.4c0,14.1,5.7,28.3,12.8,41c5.7,11.3,8.4,31.1-11.3,41
	c-14.1,8.4-32.6,2.8-41-11.3c-8.4-11.3-18.3-22.7-31.1-31.1c-24-14.1-52.3-14.1-76.3,0C14.2,178.9,0,204.5,0,231.3
	s14.1,52.3,38.2,66.5c24,14.1,52.3,14.1,76.3,0c12.8-7.1,22.7-18.3,29.7-31.1c5.7-9.9,21.2-22.7,41-11.3c14.1,8.4,18.3,26.9,11.3,41
	c-7.1,12.8-11.3,26.9-11.3,41c0,26.9,14.1,52.3,38.2,66.4c24,14.1,52.3,14.1,76.3,0c24-14.1,38.2-39.6,38.2-66.4
	s-14.1-52.3-38.2-66.5c-12.8-7.1-26.9-9.9-42.4-9.9c-12.8,0-29.7-8.4-29.7-29.7c0-17,12.8-29.7,29.7-29.7c14.1,0,29.7-2.8,42.4-9.9
	c24-14.1,38.2-39.6,38.2-66.4S323.9,73,299.8,58.9c-11.3-7.1-25.4-9.9-38.2-9.9C248.9,48.9,234.7,51.8,223.4,58.8"/>
</svg>
